<?xml version="1.0" encoding="UTF-8" standalone="no"?>
<svg
   xmlns:dc="http://purl.org/dc/elements/1.1/"
   xmlns:cc="http://creativecommons.org/ns#"
   xmlns:rdf="http://www.w3.org/1999/02/22-rdf-syntax-ns#"
   xmlns:svg="http://www.w3.org/2000/svg"
   xmlns="http://www.w3.org/2000/svg"
   xmlns:sodipodi="http://sodipodi.sourceforge.net/DTD/sodipodi-0.dtd"
   xmlns:inkscape="http://www.inkscape.org/namespaces/inkscape"
   inkscape:version="1.0 (4035a4fb49, 2020-05-01)"
   sodipodi:docname="05-location-mark.svg"
   xml:space="preserve"
   style="enable-background:new 0 0 299.997 299.997;"
   viewBox="0 0 299.997 299.997"
   y="0px"
   x="0px"
   id="Layer_1"
   version="1.1"><metadata
   id="metadata47"><rdf:RDF><cc:Work
       rdf:about=""><dc:format>image/svg+xml</dc:format><dc:type
         rdf:resource="http://purl.org/dc/dcmitype/StillImage" /></cc:Work></rdf:RDF></metadata><defs
   id="defs45" /><sodipodi:namedview
   inkscape:current-layer="Layer_1"
   inkscape:window-maximized="1"
   inkscape:window-y="32"
   inkscape:window-x="-8"
   inkscape:cy="178.23352"
   inkscape:cx="149.9985"
   inkscape:zoom="2.8333616"
   showgrid="false"
   id="namedview43"
   inkscape:window-height="1017"
   inkscape:window-width="1920"
   inkscape:pageshadow="2"
   inkscape:pageopacity="0"
   guidetolerance="10"
   gridtolerance="10"
   objecttolerance="10"
   borderopacity="1"
   bordercolor="#666666"
   pagecolor="#ffffff" />
<g
   style="fill:#660000;fill-opacity:1"
   id="g10">
	<g
   style="fill:#660000;fill-opacity:1"
   id="g8">
		<g
   style="fill:#660000;fill-opacity:1"
   id="g6">
			<circle
   style="fill:#660000;fill-opacity:1"
   id="circle2"
   r="24.149"
   cy="110.572"
   cx="150.437" />
			<path
   style="fill:#660000;fill-opacity:1"
   id="path4"
   d="M149.996,0C67.157,0,0.001,67.158,0.001,149.997c0,82.837,67.156,150,149.995,150s150-67.163,150-150     C299.996,67.158,232.835,0,149.996,0z M149.685,68.678c0.106,0,0.21-0.005,0.314-0.01c0.104,0.005,0.207,0.01,0.314,0.01     c25.274,0.399,45.834,21.288,45.834,46.568c0,30.908-33.024,62.205-46.148,73.419c-0.877-0.75-1.849-1.595-2.889-2.521     c-0.018-0.016-0.034-0.029-0.049-0.044c-14.524-12.906-43.209-42.045-43.209-70.854     C103.851,89.966,124.413,69.078,149.685,68.678z M150.65,232.25c-27.663,0-55.669-7.936-55.669-23.098     c0-10.641,13.79-17.717,31.569-20.995c3.439,3.457,6.694,6.505,9.55,9.049c-19.366,2.163-30.744,8.294-30.744,11.943     c0,4.484,17.195,12.724,45.294,12.724c28.099,0,45.297-8.24,45.297-12.724c0-3.724-11.858-10.009-31.927-12.052     c2.881-2.573,6.162-5.649,9.627-9.142c18.313,3.188,32.674,10.335,32.674,21.197C206.321,224.314,178.315,232.25,150.65,232.25z" />
		</g>
	</g>
</g>
<g
   id="g12">
</g>
<g
   id="g14">
</g>
<g
   id="g16">
</g>
<g
   id="g18">
</g>
<g
   id="g20">
</g>
<g
   id="g22">
</g>
<g
   id="g24">
</g>
<g
   id="g26">
</g>
<g
   id="g28">
</g>
<g
   id="g30">
</g>
<g
   id="g32">
</g>
<g
   id="g34">
</g>
<g
   id="g36">
</g>
<g
   id="g38">
</g>
<g
   id="g40">
</g>
</svg>
