<?xml version="1.0" ?><!DOCTYPE svg  PUBLIC '-//W3C//DTD SVG 1.1//EN'  'http://www.w3.org/Graphics/SVG/1.1/DTD/svg11.dtd'><svg enable-background="new 0 0 30 30" height="30px" id="square_icons" version="1.1" viewBox="0 0 30 30" width="30px" xml:space="preserve" xmlns="http://www.w3.org/2000/svg" xmlns:xlink="http://www.w3.org/1999/xlink"><path clip-rule="evenodd" d="M7.3,8.5L5,6.3L2.6,8.7l2.3,2.2L7.3,8.5z M14.4,3.9h-3.5v3.5h3.5  V3.9z M3.8,14.4H0.2v3.5h3.6V14.4z M2.6,23.6L5,26.1l2.3-2.2l-2.5-2.4L2.6,23.6z M18.7,13.9c-0.9-2.4-3.3-4.2-6.1-4.2  c-3.6,0-6.5,2.9-6.5,6.4c0,2.8,1.8,5.1,4.3,6C11.7,16.5,14.7,14.5,18.7,13.9z M22.7,8.7l-2.5-2.4L18,8.5l2.5,2.4L22.7,8.7z   M20.9,15.6c-4.9,0-8.9,3.9-8.9,8.7c9.8,0,8.3,0,17.8,0C29.8,19.5,25.8,15.6,20.9,15.6z" fill="#211A16" fill-rule="evenodd"/></svg>