<?xml version="1.0" encoding="UTF-8" standalone="no"?>
<svg
   xmlns:dc="http://purl.org/dc/elements/1.1/"
   xmlns:cc="http://creativecommons.org/ns#"
   xmlns:rdf="http://www.w3.org/1999/02/22-rdf-syntax-ns#"
   xmlns:svg="http://www.w3.org/2000/svg"
   xmlns="http://www.w3.org/2000/svg"
   xmlns:sodipodi="http://sodipodi.sourceforge.net/DTD/sodipodi-0.dtd"
   xmlns:inkscape="http://www.inkscape.org/namespaces/inkscape"
   inkscape:version="1.0 (4035a4fb49, 2020-05-01)"
   sodipodi:docname="logo-in-white.svg"
   xml:space="preserve"
   width="30px"
   viewBox="0 0 30 30"
   version="1.1"
   id="square_icons"
   height="30px"
   enable-background="new 0 0 30 30"><metadata
     id="metadata26"><rdf:RDF><cc:Work
         rdf:about=""><dc:format>image/svg+xml</dc:format><dc:type
           rdf:resource="http://purl.org/dc/dcmitype/StillImage" /><dc:title></dc:title></cc:Work></rdf:RDF></metadata><defs
     id="defs24" /><sodipodi:namedview
     inkscape:current-layer="square_icons"
     inkscape:window-maximized="1"
     inkscape:window-y="32"
     inkscape:window-x="-8"
     inkscape:cy="12.780851"
     inkscape:cx="14.814429"
     inkscape:zoom="22.627417"
     showgrid="false"
     id="namedview22"
     inkscape:window-height="1017"
     inkscape:window-width="1920"
     inkscape:pageshadow="2"
     inkscape:pageopacity="0"
     guidetolerance="10"
     gridtolerance="10"
     objecttolerance="10"
     borderopacity="1"
     bordercolor="#666666"
     pagecolor="#ffffff"
     inkscape:document-rotation="0" /><path
     id="path28"
     d="m 12.025393,24.031219 c 0,-0.664119 0.171413,-1.60956 0.435662,-2.402924 0.41818,-1.255518 1.062374,-2.307464 2.012537,-3.286397 1.435518,-1.478984 3.194135,-2.358525 5.3148,-2.658103 0.510119,-0.07206 1.833955,-0.06203 2.35792,0.01787 0.961551,0.146624 1.845254,0.421336 2.702539,0.840124 2.703458,1.320652 4.522835,3.857014 4.878243,6.800672 0.02041,0.169066 0.03711,0.450656 0.03711,0.625756 v 0.318364 H 20.8948 12.025393 Z"
     style="fill:#ffffff;stroke-width:0.0362757" /><path
     id="path30"
     d="M 10.2327,22.01457 C 9.9473365,21.914049 9.3425002,21.595778 8.9745359,21.352513 7.4928599,20.372959 6.5163683,18.883829 6.2004758,17.122128 c -0.089943,-0.5016 -0.089943,-1.529838 0,-2.031439 C 6.489102,13.48105 7.3415825,12.070654 8.6257314,11.078198 10.833821,9.3716741 13.88813,9.2686468 16.199834,10.82271 c 0.747918,0.502794 1.334248,1.090814 1.83007,1.835344 0.280629,0.421395 0.652452,1.1581 0.61505,1.218618 -0.01192,0.01928 -0.05743,0.0352 -0.101146,0.03537 -0.149332,5.92e-4 -1.130738,0.213464 -1.578273,0.342334 -3.361827,0.968061 -5.454208,3.366291 -6.485068,7.433008 -0.0513,0.202395 -0.09606,0.370076 -0.09945,0.372624 -0.0034,0.0025 -0.07014,-0.0179 -0.148318,-0.04544 z"
     style="fill:#ffffff;stroke-width:0.0362757" /><path
     id="path32"
     d="m 3.8164479,24.834644 -1.1850154,-1.231715 1.0834106,-1.03558 1.0834105,-1.035581 1.2244227,1.172617 c 0.6734325,0.644939 1.2226132,1.183633 1.2204015,1.197097 -0.00221,0.01346 -0.4248287,0.426427 -0.9391481,0.917695 -0.5143198,0.491268 -1.0177782,0.972858 -1.1187966,1.070199 L 5.0014634,26.06636 Z"
     style="fill:#ff0000;stroke-width:0.0362757" /><path
     id="path34"
     d="M 0.23579202,16.142684 V 14.419589 H 2.0133011 3.7908102 v 1.723095 1.723096 H 2.0133011 0.23579202 Z"
     style="fill:#ff0000;stroke-width:0.0362757" /><path
     id="path36"
     d="M 3.7658968,9.785296 2.6345747,8.7061669 3.817935,7.5203078 5.0012954,6.3344487 5.5659439,6.8720369 C 5.8765006,7.1677104 6.3836155,7.6552892 6.6928658,7.9555452 L 7.2551391,8.5014653 6.076179,9.6829452 4.8972189,10.864425 Z"
     style="fill:#ff0000;stroke-width:0.0362757" /><path
     id="path38"
     d="M 10.900846,5.6408706 V 3.8996372 h 1.741234 1.741233 V 5.6408706 7.382104 H 12.64208 10.900846 Z"
     style="fill:#ff0000;stroke-width:0.0362757" /><path
     id="path40"
     d="M 19.280532,9.6975294 C 18.612152,9.0560255 18.06119,8.5214868 18.056171,8.5096656 c -0.005,-0.011821 0.47654,-0.5062611 1.070133,-1.0987555 l 1.079258,-1.0772625 0.816203,0.7827605 c 0.448912,0.4305183 1.000642,0.963509 1.226066,1.1844237 L 22.657694,8.702495 21.576731,9.7831976 20.495768,10.8639 Z"
     style="fill:#ff0000;stroke-width:0.0362757" /></svg>
